# Blender 3.4.1
# www.blender.org
mtllib capsule.mtl
o Capsule
v 0.981239 -0.600000 -0.600000
v 0.600000 -0.600000 -0.981239
v 0.600000 -1.000000 -0.981239
v 0.981238 -1.000000 -0.600000
v 0.566616 -0.600000 -1.000000
v 0.566616 -1.000000 -1.000000
v 0.200000 -0.600000 -1.133311
v 0.200000 -1.000000 -1.133311
v -0.200000 -0.600000 -1.133311
v -0.200000 -1.000000 -1.133311
v -0.566616 -0.600000 -1.000000
v -0.566616 -1.000000 -1.000000
v -0.402605 -1.400000 -1.000000
v -0.200000 -1.400000 -1.060113
v -0.600000 -1.000000 -0.981239
v -0.600000 -1.400000 -0.895717
v -0.981239 -1.000000 -0.600000
v -0.895717 -1.400000 -0.600000
v -1.000000 -1.000000 -0.566616
v -1.000000 -1.400000 -0.402605
v -1.133311 -1.000000 -0.200000
v -1.060113 -1.400000 -0.200000
v -1.133311 -1.000000 0.200000
v -1.060113 -1.400000 0.200000
v -1.000000 -1.000000 0.566616
v -1.000000 -1.400000 0.402605
v -0.981239 -1.000000 0.600000
v -0.895717 -1.400000 0.600000
v -0.600000 -1.775880 0.600000
v -0.600000 -1.800000 0.566616
v -0.801421 -1.800000 0.200000
v -1.000000 -1.530196 0.200000
v -0.566616 -1.800000 0.600000
v -0.402605 -1.400000 1.000000
v -0.200000 -1.530196 1.000000
v -0.200000 -1.800000 0.801421
v -0.600000 -1.400000 0.895717
v 0.200000 -1.530196 1.000000
v 0.200000 -1.800000 0.801421
v 0.402605 -1.400000 1.000000
v 0.600000 -1.400000 0.895717
v 0.600000 -1.775880 0.600000
v 0.566616 -1.800000 0.600000
v 0.895717 -1.400000 0.600000
v 1.000000 -1.400000 0.402605
v 1.000000 -1.530196 0.200000
v 0.801421 -1.800000 0.200000
v 0.600000 -1.800000 0.566616
v 1.060113 -1.400000 0.200000
v 1.060113 -1.400000 -0.200000
v 1.000000 -1.530196 -0.200000
v 1.000000 -1.400000 -0.402605
v 0.895717 -1.400000 -0.600000
v 0.600000 -1.775880 -0.600000
v 0.600000 -1.800000 -0.566616
v 0.801421 -1.800000 -0.200000
v 0.566616 -1.800000 -0.600000
v 0.402605 -1.400000 -1.000000
v 0.200000 -1.530196 -1.000000
v 0.200000 -1.800000 -0.801421
v 0.600000 -1.400000 -0.895717
v -0.200000 -1.800000 -0.801421
v -0.200000 -1.530196 -1.000000
v 0.200000 -1.400000 -1.060113
v -0.200000 -1.960788 -0.600000
v 0.200000 -1.960788 -0.600000
v -0.566616 -1.800000 -0.600000
v -0.600000 -1.800000 -0.566616
v -0.600000 -1.960788 -0.200000
v -0.200000 -2.115109 -0.200000
v -0.801421 -1.800000 -0.200000
v -0.600000 -1.960788 0.200000
v -0.200000 -2.115109 0.200000
v 0.200000 -2.115109 0.200000
v 0.200000 -2.115109 -0.200000
v 0.600000 -1.960788 0.200000
v 0.600000 -1.960788 -0.200000
v 0.200000 -1.960788 0.600000
v -0.200000 -1.960788 0.600000
v -0.600000 -1.775880 -0.600000
v 1.000000 -1.000000 -0.566616
v 1.133311 -1.000000 0.200000
v 1.133311 -1.000000 -0.200000
v 1.133311 -0.600000 0.200000
v 1.133311 -0.600000 -0.200000
v 1.000000 -0.600000 -0.566616
v 1.000000 -1.000000 0.566616
v 1.000000 -0.600000 0.566616
v 1.133311 -0.200000 0.200000
v 1.000000 -0.200000 0.566616
v 1.133311 0.200000 0.200000
v 1.000000 0.200000 0.566616
v 0.981239 0.200000 0.600000
v 0.981239 -0.200000 0.600000
v 0.600000 -0.200000 0.981239
v 0.600000 0.200000 0.981239
v 0.566616 0.200000 1.000000
v 0.566616 -0.200000 1.000000
v 0.200000 -0.200000 1.133311
v 0.200000 0.200000 1.133311
v -0.200000 0.200000 1.133311
v -0.200000 -0.200000 1.133311
v -0.566616 0.200000 1.000000
v -0.566616 -0.200000 1.000000
v -0.600000 -0.200000 0.981239
v -0.600000 0.200000 0.981239
v -0.981239 0.200000 0.600000
v -0.981239 -0.200000 0.600000
v -1.000000 -0.200000 0.566616
v -1.000000 0.200000 0.566616
v -1.133311 0.200000 0.200000
v -1.133311 -0.200000 0.200000
v -1.133311 -0.200000 -0.200000
v -1.133311 0.200000 -0.200000
v -1.000000 -0.200000 -0.566616
v -1.000000 0.200000 -0.566616
v -0.981239 0.200000 -0.600000
v -0.981239 -0.200000 -0.600000
v -0.600000 -0.200000 -0.981239
v -0.600000 0.200000 -0.981239
v -0.566616 0.200000 -1.000000
v -0.566616 -0.200000 -1.000000
v -0.200000 -0.200000 -1.133311
v -0.200000 0.200000 -1.133311
v 0.200000 -0.200000 -1.133311
v 0.200000 0.200000 -1.133311
v 0.566616 0.200000 -1.000000
v 0.566616 -0.200000 -1.000000
v 0.600000 -0.200000 -0.981239
v 0.600000 0.200000 -0.981239
v 0.981239 0.200000 -0.600000
v 0.981239 -0.200000 -0.600000
v 1.000000 -0.200000 -0.566616
v 1.000000 0.200000 -0.566616
v 1.133311 0.200000 -0.200000
v 1.133311 -0.200000 -0.200000
v 1.133311 0.600000 -0.200000
v 1.000000 0.600000 -0.566616
v 1.133311 0.600000 0.200000
v 1.133311 1.000000 0.200000
v 1.133311 1.000000 -0.200000
v 1.000000 0.600000 0.566616
v 1.000000 1.000000 0.566616
v 0.981239 1.000000 0.600000
v 0.981239 0.600000 0.600000
v 0.600000 0.600000 0.981239
v 0.600000 1.000000 0.981239
v 0.566616 1.000000 1.000000
v 0.566616 0.600000 1.000000
v 0.200000 0.600000 1.133311
v 0.200000 1.000000 1.133311
v -0.200000 1.000000 1.133311
v -0.200000 0.600000 1.133311
v -0.566616 1.000000 1.000000
v -0.566616 0.600000 1.000000
v -0.600000 0.600000 0.981239
v -0.600000 1.000000 0.981239
v -0.402605 1.400000 1.000000
v -0.600000 1.400000 0.895717
v -0.895717 1.400000 0.600000
v -0.981238 1.000000 0.600000
v -1.000000 1.000000 0.566616
v -1.000000 1.400000 0.402605
v -1.060113 1.400000 0.200000
v -1.133311 1.000000 0.200000
v -1.133311 1.000000 -0.200000
v -1.060113 1.400000 -0.200000
v -1.133311 0.600000 0.200000
v -1.133311 0.600000 -0.200000
v -1.000000 0.600000 -0.566616
v -1.000000 1.000000 -0.566616
v -0.981238 1.000000 -0.600000
v -0.981239 0.600000 -0.600000
v -0.600000 0.600000 -0.981239
v -0.600000 1.000000 -0.981239
v -0.566616 1.000000 -1.000000
v -0.566616 0.600000 -1.000000
v -0.200000 0.600000 -1.133311
v -0.200000 1.000000 -1.133311
v 0.200000 0.600000 -1.133311
v 0.200000 1.000000 -1.133311
v -0.200000 1.400000 -1.060113
v 0.200000 1.400000 -1.060113
v 0.402605 1.400000 -1.000000
v 0.566616 1.000000 -1.000000
v 0.600000 1.000000 -0.981239
v 0.600000 1.400000 -0.895717
v 0.895717 1.400000 -0.600000
v 0.981239 1.000000 -0.600000
v 1.000000 1.000000 -0.566616
v 1.000000 1.400000 -0.402605
v 1.060113 1.400000 -0.200000
v 1.000000 1.530196 -0.200000
v 1.060113 1.400000 0.200000
v 1.000000 1.530196 0.200000
v 0.801421 1.800000 0.200000
v 0.801421 1.800000 -0.200000
v 1.000000 1.400000 0.402605
v 0.895717 1.400000 0.600000
v 0.600000 1.775880 0.600000
v 0.600000 1.800000 0.566616
v 0.566616 1.800000 0.600000
v 0.600000 1.400000 0.895717
v 0.402605 1.400000 1.000000
v 0.200000 1.530196 1.000000
v 0.200000 1.800000 0.801421
v -0.200000 1.800000 0.801421
v -0.200000 1.530196 1.000000
v -0.200000 1.400000 1.060113
v 0.200000 1.400000 1.060113
v -0.200000 1.960788 0.600000
v 0.200000 1.960788 0.600000
v -0.566616 1.800000 0.600000
v -0.600000 1.800000 0.566616
v -0.600000 1.960788 0.200000
v -0.200000 2.115109 0.200000
v -0.801421 1.800000 0.200000
v -0.801421 1.800000 -0.200000
v -0.600000 1.960788 -0.200000
v -0.600000 1.800000 -0.566616
v -0.566616 1.800000 -0.600000
v -0.200000 1.960788 -0.600000
v -0.200000 2.115109 -0.200000
v 0.200000 1.960788 -0.600000
v 0.200000 2.115109 -0.200000
v -0.200000 1.800000 -0.801421
v 0.200000 1.800000 -0.801421
v 0.566616 1.800000 -0.600000
v -0.200000 1.530196 -1.000000
v 0.200000 1.530196 -1.000000
v -0.600000 1.775880 -0.600000
v -0.600000 1.400000 -0.895717
v -0.402605 1.400000 -1.000000
v -0.895717 1.400000 -0.600000
v 0.200000 2.115109 0.200000
v 0.600000 1.960788 -0.200000
v 0.600000 1.960788 0.200000
v -1.000000 1.530196 -0.200000
v -1.000000 1.400000 -0.402605
v -1.000000 1.530196 0.200000
v -0.600000 1.775880 0.600000
v 0.600000 1.800000 -0.566616
v 0.981239 0.600000 -0.600000
v 0.600000 1.775880 -0.600000
v 0.600000 0.600000 -0.981239
v 0.566616 0.600000 -1.000000
v -1.000000 0.600000 0.566616
v -0.981239 0.600000 0.600000
v -0.981239 -0.600000 -0.600000
v -0.600000 -0.600000 -0.981239
v -1.000000 -0.600000 -0.566616
v -1.133311 -0.600000 0.200000
v -1.133311 -0.600000 -0.200000
v -1.000000 -0.600000 0.566616
v -0.981239 -0.600000 0.600000
v -0.566616 -0.600000 1.000000
v -0.600000 -0.600000 0.981239
v -0.566616 -1.000000 1.000000
v -0.600000 -1.000000 0.981239
v -0.200000 -0.600000 1.133311
v -0.200000 -1.000000 1.133311
v 0.200000 -0.600000 1.133311
v 0.200000 -1.000000 1.133311
v 0.566616 -0.600000 1.000000
v 0.566616 -1.000000 1.000000
v 0.600000 -0.600000 0.981239
v 0.600000 -1.000000 0.981239
v 0.981239 -0.600000 0.600000
v 0.981238 -1.000000 0.600000
v 0.200000 -1.400000 1.060113
v -0.200000 -1.400000 1.060113
v -1.000000 -1.530196 -0.200000
vn 0.8531 -0.0002 -0.5218
vn 0.5218 -0.0002 -0.8531
vn 0.5218 -0.0000 -0.8531
vn 0.8531 -0.0000 -0.5218
vn 0.4931 -0.0003 -0.8700
vn 0.4931 -0.0000 -0.8700
vn 0.1741 -0.0000 -0.9847
vn -0.1736 -0.0000 -0.9848
vn -0.4928 -0.0003 -0.8701
vn -0.4928 -0.0000 -0.8701
vn -0.1736 -0.3478 -0.9214
vn -0.3500 -0.3480 -0.8697
vn -0.5217 -0.3480 -0.7789
vn -0.5218 -0.0002 -0.8531
vn -0.7789 -0.3480 -0.5218
vn -0.8531 -0.0002 -0.5218
vn -0.8697 -0.3478 -0.3501
vn -0.8700 -0.0003 -0.4931
vn -0.9213 -0.3478 -0.1741
vn -0.9847 -0.0002 -0.1740
vn -0.9214 -0.3478 0.1736
vn -0.9848 -0.0002 0.1735
vn -0.8697 -0.3478 0.3501
vn -0.8701 -0.0003 0.4928
vn -0.7789 -0.3480 0.5217
vn -0.8531 -0.0002 0.5218
vn -0.6969 -0.6958 0.1737
vn -0.5219 -0.6962 0.4928
vn -0.5218 -0.6749 0.5218
vn -0.8701 -0.4612 0.1740
vn -0.4928 -0.6962 0.5219
vn -0.1737 -0.6955 0.6972
vn -0.1740 -0.4612 0.8701
vn -0.3498 -0.3478 0.8699
vn -0.5217 -0.3480 0.7789
vn 0.1741 -0.6955 0.6971
vn 0.1743 -0.4611 0.8701
vn 0.4931 -0.6961 0.5218
vn 0.5220 -0.6748 0.5216
vn 0.5218 -0.3480 0.7789
vn 0.3501 -0.3477 0.8698
vn 0.7789 -0.3480 0.5217
vn 0.6970 -0.6957 0.1737
vn 0.8700 -0.4614 0.1741
vn 0.8696 -0.3479 0.3502
vn 0.5222 -0.6961 0.4928
vn 0.9214 -0.3478 0.1736
vn 0.8699 -0.4614 -0.1743
vn 0.9213 -0.3478 -0.1741
vn 0.8696 -0.3479 -0.3502
vn 0.6969 -0.6957 -0.1741
vn 0.5221 -0.6959 -0.4931
vn 0.5219 -0.6747 -0.5219
vn 0.7788 -0.3480 -0.5218
vn 0.4931 -0.6959 -0.5221
vn 0.1741 -0.6955 -0.6971
vn 0.1743 -0.4614 -0.8699
vn 0.3502 -0.3479 -0.8697
vn 0.5218 -0.3480 -0.7788
vn -0.1741 -0.4614 -0.8700
vn -0.1737 -0.6956 -0.6971
vn 0.1741 -0.3478 -0.9213
vn 0.1741 -0.8351 -0.5218
vn -0.1736 -0.8352 -0.5219
vn -0.4928 -0.6961 -0.5222
vn -0.1738 -0.9693 -0.1742
vn -0.5217 -0.8352 -0.1739
vn -0.5218 -0.6961 -0.4931
vn -0.6969 -0.6957 -0.1741
vn -0.5217 -0.8352 0.1739
vn -0.1738 -0.9693 0.1738
vn 0.1742 -0.9692 -0.1742
vn 0.1742 -0.9693 0.1738
vn 0.5218 -0.8352 -0.1739
vn 0.5218 -0.8352 0.1739
vn 0.1742 -0.8353 0.5215
vn -0.1736 -0.8354 0.5215
vn -0.5216 -0.6748 -0.5220
vn 0.8700 -0.0003 -0.4931
vn 0.9847 -0.0002 -0.1741
vn 0.9848 -0.0002 0.1736
vn 0.9847 -0.0000 -0.1741
vn 0.9848 -0.0000 0.1736
vn 0.8700 -0.0000 -0.4931
vn 0.8701 -0.0000 0.4928
vn 0.8701 -0.0003 0.4928
vn 0.8531 -0.0000 0.5218
vn 0.5218 -0.0000 0.8531
vn 0.4931 -0.0000 0.8700
vn 0.1740 -0.0000 0.9847
vn -0.1735 -0.0000 0.9848
vn -0.4928 -0.0000 0.8701
vn -0.5218 -0.0000 0.8531
vn -0.8531 -0.0000 0.5218
vn -0.8701 -0.0000 0.4928
vn -0.9848 -0.0000 0.1735
vn -0.9847 -0.0000 -0.1740
vn -0.8700 -0.0000 -0.4931
vn -0.8531 -0.0000 -0.5218
vn -0.5218 -0.0000 -0.8531
vn -0.5218 0.3476 0.7791
vn -0.3498 0.3477 0.8699
vn -0.7791 0.3476 0.5218
vn -0.8697 0.3477 0.3502
vn -0.9215 0.3474 0.1736
vn -0.9214 0.3474 -0.1741
vn 0.1741 0.3474 -0.9214
vn -0.1736 0.3474 -0.9215
vn 0.3502 0.3478 -0.8697
vn 0.5219 0.3476 -0.7790
vn 0.7790 0.3476 -0.5219
vn 0.8697 0.3478 -0.3502
vn 0.9214 0.3474 -0.1741
vn 0.8700 0.4613 -0.1744
vn 0.8700 0.4613 0.1741
vn 0.9215 0.3474 0.1736
vn 0.6970 0.6956 -0.1741
vn 0.6971 0.6956 0.1737
vn 0.7790 0.3476 0.5218
vn 0.8697 0.3478 0.3502
vn 0.5222 0.6960 0.4928
vn 0.5221 0.6747 0.5217
vn 0.4932 0.6960 0.5219
vn 0.3501 0.3477 0.8698
vn 0.5218 0.3476 0.7790
vn 0.1740 0.6957 0.6969
vn 0.1742 0.4613 0.8700
vn -0.1740 0.4613 0.8700
vn -0.1737 0.6957 0.6970
vn 0.1741 0.3474 0.9214
vn -0.1736 0.3474 0.9215
vn 0.1742 0.8353 0.5215
vn -0.1736 0.8354 0.5216
vn -0.4929 0.6961 0.5220
vn -0.1737 0.9694 0.1737
vn -0.5216 0.8353 0.1738
vn -0.5220 0.6961 0.4929
vn -0.6970 0.6957 0.1737
vn -0.5216 0.8353 -0.1738
vn -0.6970 0.6956 -0.1741
vn -0.5219 0.6960 -0.4932
vn -0.1737 0.9693 -0.1741
vn -0.1736 0.8351 -0.5219
vn -0.4928 0.6960 -0.5222
vn 0.1741 0.9692 -0.1741
vn 0.1741 0.8351 -0.5219
vn 0.1741 0.6957 -0.6969
vn -0.1737 0.6958 -0.6969
vn 0.4931 0.6959 -0.5221
vn 0.1743 0.4615 -0.8698
vn -0.1741 0.4615 -0.8699
vn -0.3500 0.3479 -0.8698
vn -0.5218 0.3476 -0.7790
vn -0.5217 0.6747 -0.5221
vn -0.7790 0.3476 -0.5218
vn 0.1741 0.9693 0.1737
vn 0.5217 0.8352 0.1738
vn 0.5217 0.8352 -0.1738
vn -0.8697 0.3477 -0.3502
vn -0.8701 0.4611 -0.1743
vn -0.8701 0.4611 0.1740
vn -0.5218 0.6748 0.5218
vn 0.5221 0.6959 -0.4931
vn 0.5220 0.6746 -0.5220
vn -0.5218 -0.0002 0.8531
vn -0.4928 -0.0003 0.8701
vn 0.4931 -0.0003 0.8700
vn 0.5218 -0.0002 0.8531
vn 0.8531 -0.0002 0.5218
vn 0.1741 -0.3478 0.9213
vn -0.1736 -0.3478 0.9214
vn -0.8701 -0.4611 -0.1743
s 1
f 4//1 3//2 2//3 1//4
f 2//3 3//2 6//5 5//6
f 6//5 8//7 7//7 5//6
f 7//7 8//7 10//8 9//8
f 9//8 10//8 12//9 11//10
f 10//8 14//11 13//12 12//9
f 13//12 16//13 15//14 12//9
f 15//14 16//13 18//15 17//16
f 18//15 20//17 19//18 17//16
f 19//18 20//17 22//19 21//20
f 21//20 22//19 24//21 23//22
f 24//21 26//23 25//24 23//22
f 25//24 26//23 28//25 27//26
f 31//27 30//28 29//29 28//25
f 26//23 32//30 31//27 28//25
f 29//29 30//28 33//31
f 33//31 36//32 35//33 34//34
f 37//35 29//29 33//31 34//34
f 39//36 38//37 35//33 36//32
f 43//38 42//39 41//40 40//41
f 38//37 39//36 43//38 40//41
f 41//40 42//39 44//42
f 47//43 46//44 45//45 44//42
f 42//39 48//46 47//43 44//42
f 45//45 46//44 49//47
f 46//44 51//48 50//49 49//47
f 51//48 52//50 50//49
f 56//51 55//52 54//53 53//54
f 52//50 51//48 56//51 53//54
f 54//53 55//52 57//55
f 57//55 60//56 59//57 58//58
f 61//59 54//53 57//55 58//58
f 63//60 59//57 60//56 62//61
f 64//62 59//57 63//60 14//11
f 60//56 66//63 65//64 62//61
f 62//61 65//64 67//65
f 70//66 69//67 68//68 67//65
f 65//64 70//66 67//65
f 68//68 69//67 71//69
f 71//69 69//67 72//70 31//27
f 69//67 70//66 73//71 72//70
f 70//66 75//72 74//73 73//71
f 75//72 77//74 76//75 74//73
f 76//75 77//74 56//51 47//43
f 74//73 76//75 48//46 43//38
f 78//76 74//73 43//38
f 73//71 74//73 78//76 79//77
f 68//68 80//78 67//65
f 65//64 66//63 75//72 70//66
f 59//57 64//62 58//58
f 66//63 60//56 57//55
f 54//53 61//59 53//54
f 77//74 55//52 56//51
f 81//79 52//50 53//54 4//1
f 49//47 50//49 83//80 82//81
f 82//81 83//80 85//82 84//83
f 83//80 81//79 86//84 85//82
f 88//85 87//86 82//81 84//83
f 90//85 88//85 84//83 89//83
f 92//85 90//85 89//83 91//83
f 94//87 90//85 92//85 93//87
f 96//88 95//88 94//87 93//87
f 98//89 95//88 96//88 97//89
f 100//90 99//90 98//89 97//89
f 102//91 99//90 100//90 101//91
f 104//92 102//91 101//91 103//92
f 106//93 105//93 104//92 103//92
f 108//94 105//93 106//93 107//94
f 110//95 109//95 108//94 107//94
f 112//96 109//95 110//95 111//96
f 114//97 113//97 112//96 111//96
f 116//98 115//98 113//97 114//97
f 118//99 115//98 116//98 117//99
f 120//100 119//100 118//99 117//99
f 122//10 119//100 120//100 121//10
f 124//8 123//8 122//10 121//10
f 126//7 125//7 123//8 124//8
f 128//6 125//7 126//7 127//6
f 130//3 129//3 128//6 127//6
f 132//4 129//3 130//3 131//4
f 134//84 133//84 132//4 131//4
f 136//82 133//84 134//84 135//82
f 135//82 134//84 138//84 137//82
f 91//83 135//82 137//82 139//83
f 139//83 137//82 141//82 140//83
f 143//85 142//85 139//83 140//83
f 145//87 142//85 143//85 144//87
f 147//88 146//88 145//87 144//87
f 149//89 146//88 147//88 148//89
f 151//90 150//90 149//89 148//89
f 153//91 150//90 151//90 152//91
f 155//92 153//91 152//91 154//92
f 157//93 156//93 155//92 154//92
f 159//101 157//93 154//92 158//102
f 161//94 157//93 159//101 160//103
f 163//104 162//95 161//94 160//103
f 165//96 162//95 163//104 164//105
f 167//106 166//97 165//96 164//105
f 166//97 169//97 168//96 165//96
f 171//98 170//98 169//97 166//97
f 173//99 170//98 171//98 172//99
f 175//100 174//100 173//99 172//99
f 177//10 174//100 175//100 176//10
f 179//8 178//8 177//10 176//10
f 181//7 180//7 178//8 179//8
f 183//107 181//7 179//8 182//108
f 185//6 181//7 183//107 184//109
f 187//110 186//3 185//6 184//109
f 189//4 186//3 187//110 188//111
f 191//112 190//84 189//4 188//111
f 141//82 190//84 191//112 192//113
f 191//112 193//114 192//113
f 192//113 193//114 195//115 194//116
f 195//115 193//114 197//117 196//118
f 199//119 198//120 195//115 196//118
f 201//121 200//122 199//119 196//118
f 200//122 201//121 202//123
f 204//124 203//125 200//122 202//123
f 206//126 205//127 204//124 202//123
f 208//128 205//127 206//126 207//129
f 210//130 205//127 208//128 209//131
f 209//131 208//128 158//102
f 206//126 212//132 211//133 207//129
f 207//129 211//133 213//134
f 216//135 215//136 214//137 213//134
f 211//133 216//135 213//134
f 214//137 215//136 217//138
f 215//136 219//139 218//140 217//138
f 219//139 220//141 218//140
f 219//139 223//142 222//143 221//144
f 220//141 219//139 221//144
f 225//145 224//146 222//143 223//142
f 222//143 224//146 227//147 226//148
f 227//147 224//146 228//149
f 227//147 230//150 229//151 226//148
f 233//152 232//153 231//154 221//144
f 226//148 229//151 233//152 221//144
f 231//154 232//153 234//155
f 229//151 182//108 233//152
f 235//156 225//145 223//142 216//135
f 237//157 236//158 225//145 235//156
f 222//143 226//148 221//144
f 231//154 220//141 221//144
f 234//155 239//159 238//160 218//140
f 220//141 231//154 234//155 218//140
f 238//160 239//159 167//106
f 218//140 238//160 240//161 217//138
f 216//135 223//142 219//139 215//136
f 214//137 241//162 213//134
f 212//132 235//156 216//135 211//133
f 205//127 210//130 204//124
f 212//132 206//126 202//123
f 237//157 235//156 212//132 202//123
f 201//121 237//157 202//123
f 200//122 203//125 199//119
f 237//157 201//121 196//118
f 197//117 236//158 237//157 196//118
f 242//163 236//158 197//117
f 195//115 198//120 194//116
f 190//84 138//84 243//4 189//4
f 188//111 244//164 242//163 197//117
f 193//114 191//112 188//111 197//117
f 242//163 244//164 228//149
f 243//4 245//3 186//3 189//4
f 187//110 244//164 188//111
f 186//3 245//3 246//6 185//6
f 184//109 230//150 227//147 228//149
f 244//164 187//110 184//109 228//149
f 183//107 230//150 184//109
f 229//151 230//150 183//107 182//108
f 182//108 179//8 176//10 233//152
f 176//10 175//100 232//153 233//152
f 232//153 175//100 172//99 234//155
f 172//99 171//98 239//159 234//155
f 240//161 238//160 167//106 164//105
f 168//96 247//95 162//95 165//96
f 163//104 240//161 164//105
f 162//95 247//95 248//94 161//94
f 160//103 241//162 214//137 217//138
f 240//161 163//104 160//103 217//138
f 159//101 241//162 160//103
f 158//102 208//128 207//129 213//134
f 241//162 159//101 158//102 213//134
f 154//92 152//91 209//131 158//102
f 152//91 151//90 210//130 209//131
f 148//89 147//88 203//125 204//124
f 203//125 147//88 144//87 199//119
f 144//87 143//85 198//120 199//119
f 198//120 143//85 140//83 194//116
f 140//83 141//82 192//113 194//116
f 133//84 86//84 1//4 132//4
f 138//84 134//84 131//4 243//4
f 245//3 130//3 127//6 246//6
f 127//6 126//7 180//7 246//6
f 180//7 126//7 124//8 178//8
f 178//8 124//8 121//10 177//10
f 119//100 250//100 249//99 118//99
f 174//100 120//100 117//99 173//99
f 249//99 251//98 115//98 118//99
f 117//99 116//98 170//98 173//99
f 170//98 116//98 114//97 169//97
f 113//97 253//97 252//96 112//96
f 169//97 114//97 111//96 168//96
f 252//96 254//95 109//95 112//96
f 111//96 110//95 247//95 168//96
f 109//95 254//95 255//94 108//94
f 247//95 110//95 107//94 248//94
f 107//94 106//93 156//93 248//94
f 105//93 257//93 256//92 104//92
f 257//93 259//165 258//166 256//92
f 27//26 259//165 257//93 255//94
f 258//166 261//91 260//91 256//92
f 261//91 263//90 262//90 260//91
f 262//90 263//90 265//167 264//89
f 265//167 267//168 266//88 264//89
f 266//88 267//168 269//169 268//87
f 263//90 270//170 40//41 265//167
f 271//171 270//170 263//90 261//91
f 34//34 271//171 261//91 258//166
f 156//93 106//93 103//92 155//92
f 256//92 260//91 102//91 104//92
f 103//92 101//91 153//91 155//92
f 260//91 262//90 99//90 102//91
f 101//91 100//90 150//90 153//91
f 150//90 100//90 97//89 149//89
f 264//89 266//88 95//88 98//89
f 97//89 96//88 146//88 149//89
f 95//88 266//88 268//87 94//87
f 146//88 96//88 93//87 145//87
f 89//83 136//82 135//82 91//83
f 142//85 92//85 91//83 139//83
f 84//83 85//82 136//82 89//83
f 87//86 45//45 49//47 82//81
f 56//51 51//48 46//44 47//43
f 48//46 76//75 47//43
f 44//42 45//45 87//86 269//169
f 267//168 41//40 44//42 269//169
f 48//46 42//39 43//38
f 39//36 78//76 43//38
f 40//41 41//40 267//168 265//167
f 35//33 38//37 270//170 271//171
f 79//77 78//76 39//36 36//32
f 35//33 271//171 34//34
f 79//77 36//32 33//31
f 259//165 37//35 34//34 258//166
f 72//70 73//71 79//77 33//31
f 30//28 72//70 33//31
f 32//30 272//172 71//69 31//27
f 29//29 37//35 28//25
f 72//70 30//28 31//27
f 254//95 25//24 27//26 255//94
f 32//30 26//23 24//21
f 23//22 25//24 254//95 252//96
f 22//19 272//172 32//30 24//21
f 253//97 21//20 23//22 252//96
f 251//98 19//18 21//20 253//97
f 71//69 272//172 20//17 18//15
f 80//78 68//68 71//69 18//15
f 17//16 19//18 251//98 249//99
f 16//13 80//78 18//15
f 250//100 15//14 17//16 249//99
f 67//65 80//78 16//13 13//12
f 63//60 62//61 67//65 13//12
f 14//11 63//60 13//12
f 123//8 9//8 11//10 122//10
f 8//7 64//62 14//11 10//8
f 125//7 7//7 9//8 123//8
f 3//2 61//59 58//58 6//5
f 129//3 2//3 5//6 128//6
f 86//84 81//79 4//1 1//4
f 53//54 61//59 3//2 4//1
f 58//58 64//62 8//7 6//5
f 12//9 15//14 250//100 11//10
f 50//49 52//50 81//79 83//80
f 77//74 75//72 66//63 57//55
f 55//52 77//74 57//55
f 20//17 272//172 22//19
f 269//169 87//86 88//85 268//87
f 270//170 38//37 40//41
f 28//25 37//35 259//165 27//26
f 1//4 2//3 129//3 132//4
f 5//6 7//7 125//7 128//6
f 11//10 250//100 119//100 122//10
f 85//82 86//84 133//84 136//82
f 115//98 251//98 253//97 113//97
f 268//87 88//85 90//85 94//87
f 99//90 262//90 264//89 98//89
f 255//94 257//93 105//93 108//94
f 131//4 130//3 245//3 243//4
f 246//6 180//7 181//7 185//6
f 121//10 120//100 174//100 177//10
f 137//82 138//84 190//84 141//82
f 225//145 236//158 242//163 228//149
f 224//146 225//145 228//149
f 239//159 171//98 166//97 167//106
f 93//87 92//85 142//85 145//87
f 210//130 151//90 148//89 204//124
f 248//94 156//93 157//93 161//94
