# Blender 3.3.0
# www.blender.org
mtllib cube_uv.mtl
o Cube
v 1.000000 1.000000 -1.000000
v 1.000000 -1.000000 -1.000000
v 1.000000 1.000000 1.000000
v 1.000000 -1.000000 1.000000
v -1.000000 1.000000 -1.000000
v -1.000000 -1.000000 -1.000000
v -1.000000 1.000000 1.000000
v -1.000000 -1.000000 1.000000
vn -0.0000 1.0000 -0.0000
vn -0.0000 -0.0000 1.0000
vn -1.0000 -0.0000 -0.0000
vn -0.0000 -1.0000 -0.0000
vn 1.0000 -0.0000 -0.0000
vn -0.0000 -0.0000 -1.0000
vt 1.000104 0.000875
vt 0.999800 0.000200
vt 1.000411 0.999800
vt 0.001703 0.998449
vt 0.001551 0.000200
vt 0.000200 0.999800
vt 0.000200 0.000875
vt 0.996688 0.000953
vt 0.999800 0.999277
vt 0.003312 0.000953
vt 0.001703 0.000200
vt 0.001551 0.999276
vt 1.000104 0.998876
vt 0.000200 0.999276
vt 1.000411 0.000879
vt 0.000200 0.000200
vt 0.999125 0.998449
vt 0.000200 0.000879
vt 0.000200 0.998876
vt 0.996688 0.999047
vt 0.999276 0.999276
vt 0.003312 0.999047
vt 0.999276 0.000200
vt 0.999125 0.000200
s 0
usemtl Material
f 1/1/1 5/13/1 7/19/1 3/7/1
f 4/10/2 3/8/2 7/20/2 8/22/2
f 8/23/3 7/21/3 5/14/3 6/16/3
f 6/17/4 2/4/4 4/11/4 8/24/4
f 2/5/5 1/2/5 3/9/5 4/12/5
f 6/18/6 5/15/6 1/3/6 2/6/6
