# Blender v2.92.0 OBJ File: 'ring 2.0.blend'
# www.blender.org
mtllib rings.mtl
o Circle
v 0.043229 -0.045861 -1.000000
v -0.151861 -0.045861 -0.980785
v -0.339455 -0.045861 -0.923880
v -0.512341 -0.045861 -0.831470
v -0.663878 -0.045861 -0.707107
v -0.788241 -0.045861 -0.555570
v -0.880651 -0.045861 -0.382683
v -0.937556 -0.045861 -0.195090
v -0.956771 -0.045861 -0.000000
v -0.937556 -0.045861 0.195090
v -0.880651 -0.045861 0.382683
v -0.788241 -0.045861 0.555570
v -0.663878 -0.045861 0.707107
v -0.512341 -0.045861 0.831470
v -0.339454 -0.045861 0.923880
v -0.151861 -0.045861 0.980785
v 0.043229 -0.045861 1.000000
v 0.238320 -0.045861 0.980785
v 0.425913 -0.045861 0.923879
v 0.598800 -0.045861 0.831469
v 0.750336 -0.045861 0.707106
v 0.874699 -0.045861 0.555570
v 0.967109 -0.045861 0.382683
v 1.024014 -0.045861 0.195089
v 1.043229 -0.045861 -0.000001
v 1.024014 -0.045861 -0.195091
v 0.967108 -0.045861 -0.382684
v 0.874698 -0.045861 -0.555571
v 0.750335 -0.045861 -0.707108
v 0.598798 -0.045861 -0.831470
v 0.425911 -0.045861 -0.923880
v 0.238318 -0.045861 -0.980786
v 0.043229 0.050304 -1.000000
v -0.151861 0.050304 -0.980785
v -0.339455 0.050304 -0.923880
v -0.512341 0.050304 -0.831470
v -0.663878 0.050304 -0.707107
v -0.788241 0.050304 -0.555570
v -0.880651 0.050304 -0.382683
v -0.937556 0.050304 -0.195090
v -0.956771 0.050304 -0.000000
v -0.937556 0.050304 0.195090
v -0.880651 0.050304 0.382683
v -0.788241 0.050304 0.555570
v -0.663878 0.050304 0.707107
v -0.512341 0.050304 0.831470
v -0.339454 0.050304 0.923880
v -0.151861 0.050304 0.980785
v 0.043229 0.050304 1.000000
v 0.238320 0.050304 0.980785
v 0.425913 0.050304 0.923879
v 0.598800 0.050304 0.831469
v 0.750336 0.050304 0.707106
v 0.874699 0.050304 0.555570
v 0.967109 0.050304 0.382683
v 1.024014 0.050304 0.195089
v 1.043229 0.050304 -0.000001
v 1.024014 0.050304 -0.195091
v 0.967108 0.050304 -0.382684
v 0.874698 0.050304 -0.555571
v 0.750335 0.050304 -0.707108
v 0.598798 0.050304 -0.831470
v 0.425911 0.050304 -0.923880
v 0.238318 0.050304 -0.980786
vt 0.000000 0.000000
vt 0.000000 0.000000
vt 0.000000 0.000000
vt 0.000000 0.000000
vt 0.000000 0.000000
vt 0.000000 0.000000
vt 0.000000 0.000000
vt 0.000000 0.000000
vt 0.000000 0.000000
vt 0.000000 0.000000
vt 0.000000 0.000000
vt 0.000000 0.000000
vt 0.000000 0.000000
vt 0.000000 0.000000
vt 0.000000 0.000000
vt 0.000000 0.000000
vt 0.000000 0.000000
vt 0.000000 0.000000
vt 0.000000 0.000000
vt 0.000000 0.000000
vt 0.000000 0.000000
vt 0.000000 0.000000
vt 0.000000 0.000000
vt 0.000000 0.000000
vt 0.000000 0.000000
vt 0.000000 0.000000
vt 0.000000 0.000000
vt 0.000000 0.000000
vt 0.000000 0.000000
vt 0.000000 0.000000
vt 0.000000 0.000000
vt 0.000000 0.000000
vt 0.000000 0.000000
vt 0.000000 0.000000
vt 0.000000 0.000000
vt 0.000000 0.000000
vt 0.000000 0.000000
vt 0.000000 0.000000
vt 0.000000 0.000000
vt 0.000000 0.000000
vt 0.000000 0.000000
vt 0.000000 0.000000
vt 0.000000 0.000000
vt 0.000000 0.000000
vt 0.000000 0.000000
vt 0.000000 0.000000
vt 0.000000 0.000000
vt 0.000000 0.000000
vt 0.000000 0.000000
vt 0.000000 0.000000
vt 0.000000 0.000000
vt 0.000000 0.000000
vt 0.000000 0.000000
vt 0.000000 0.000000
vt 0.000000 0.000000
vt 0.000000 0.000000
vt 0.000000 0.000000
vt 0.000000 0.000000
vt 0.000000 0.000000
vt 0.000000 0.000000
vt 0.000000 0.000000
vt 0.000000 0.000000
vt 0.000000 0.000000
vt 0.000000 0.000000
vn 0.2903 0.0000 0.9569
vn -0.6344 0.0000 0.7730
vn 0.0980 0.0000 -0.9952
vn 0.4714 0.0000 0.8819
vn -0.4714 0.0000 0.8819
vn -0.0980 0.0000 -0.9952
vn 0.6344 0.0000 0.7730
vn -0.2903 0.0000 0.9569
vn -0.2903 0.0000 -0.9569
vn 0.7730 0.0000 0.6344
vn -0.0980 0.0000 0.9952
vn -0.4714 0.0000 -0.8819
vn 0.8819 0.0000 0.4714
vn -0.6344 0.0000 -0.7730
vn 0.9569 0.0000 0.2903
vn -0.7730 0.0000 -0.6344
vn 0.9952 0.0000 0.0980
vn -0.8819 0.0000 -0.4714
vn 0.9952 0.0000 -0.0980
vn -0.9569 0.0000 -0.2903
vn 0.9569 0.0000 -0.2903
vn -0.9952 0.0000 -0.0980
vn 0.8819 0.0000 -0.4714
vn -0.9952 0.0000 0.0980
vn 0.7730 0.0000 -0.6344
vn -0.9569 0.0000 0.2903
vn 0.6344 0.0000 -0.7730
vn -0.8819 0.0000 0.4714
vn 0.4714 0.0000 -0.8819
vn 0.0980 0.0000 0.9952
vn -0.7730 0.0000 0.6344
vn 0.2903 0.0000 -0.9569
usemtl None
s off
f 2/1/1 35/2/1 3/3/1
f 29/4/2 62/5/2 30/6/2
f 16/7/3 49/8/3 17/9/3
f 3/3/4 36/10/4 4/11/4
f 30/6/5 63/12/5 31/13/5
f 17/9/6 50/14/6 18/15/6
f 4/11/7 37/16/7 5/17/7
f 31/13/8 64/18/8 32/19/8
f 18/15/9 51/20/9 19/21/9
f 5/17/10 38/22/10 6/23/10
f 32/19/11 33/24/11 1/25/11
f 19/21/12 52/26/12 20/27/12
f 6/23/13 39/28/13 7/29/13
f 20/27/14 53/30/14 21/31/14
f 7/29/15 40/32/15 8/33/15
f 21/31/16 54/34/16 22/35/16
f 8/33/17 41/36/17 9/37/17
f 22/35/18 55/38/18 23/39/18
f 9/37/19 42/40/19 10/41/19
f 23/39/20 56/42/20 24/43/20
f 10/41/21 43/44/21 11/45/21
f 24/43/22 57/46/22 25/47/22
f 11/45/23 44/48/23 12/49/23
f 25/47/24 58/50/24 26/51/24
f 12/49/25 45/52/25 13/53/25
f 26/51/26 59/54/26 27/55/26
f 13/53/27 46/56/27 14/57/27
f 27/55/28 60/58/28 28/59/28
f 14/57/29 47/60/29 15/61/29
f 1/25/30 34/62/30 2/1/30
f 28/59/31 61/63/31 29/4/31
f 15/61/32 48/64/32 16/7/32
f 2/1/1 34/62/1 35/2/1
f 29/4/2 61/63/2 62/5/2
f 16/7/3 48/64/3 49/8/3
f 3/3/4 35/2/4 36/10/4
f 30/6/5 62/5/5 63/12/5
f 17/9/6 49/8/6 50/14/6
f 4/11/7 36/10/7 37/16/7
f 31/13/8 63/12/8 64/18/8
f 18/15/9 50/14/9 51/20/9
f 5/17/10 37/16/10 38/22/10
f 32/19/11 64/18/11 33/24/11
f 19/21/12 51/20/12 52/26/12
f 6/23/13 38/22/13 39/28/13
f 20/27/14 52/26/14 53/30/14
f 7/29/15 39/28/15 40/32/15
f 21/31/16 53/30/16 54/34/16
f 8/33/17 40/32/17 41/36/17
f 22/35/18 54/34/18 55/38/18
f 9/37/19 41/36/19 42/40/19
f 23/39/20 55/38/20 56/42/20
f 10/41/21 42/40/21 43/44/21
f 24/43/22 56/42/22 57/46/22
f 11/45/23 43/44/23 44/48/23
f 25/47/24 57/46/24 58/50/24
f 12/49/25 44/48/25 45/52/25
f 26/51/26 58/50/26 59/54/26
f 13/53/27 45/52/27 46/56/27
f 27/55/28 59/54/28 60/58/28
f 14/57/29 46/56/29 47/60/29
f 1/25/30 33/24/30 34/62/30
f 28/59/31 60/58/31 61/63/31
f 15/61/32 47/60/32 48/64/32
o Circle.001
v 0.043229 -0.045861 -1.010000
v 0.043229 -0.242902 -0.990593
v 0.043229 -0.432371 -0.933118
v 0.043229 -0.606987 -0.839784
v 0.043229 -0.760039 -0.714178
v 0.043229 -0.885645 -0.561126
v 0.043229 -0.978979 -0.386510
v 0.043229 -1.036454 -0.197041
v 0.043229 -1.055861 -0.000000
v 0.043229 -1.036454 0.197041
v 0.043229 -0.978979 0.386510
v 0.043229 -0.885645 0.561126
v 0.043229 -0.760039 0.714178
v 0.043229 -0.606987 0.839784
v 0.043229 -0.432371 0.933118
v 0.043229 -0.242902 0.990593
v 0.043229 -0.045860 1.010000
v 0.043229 0.151181 0.990593
v 0.043229 0.340650 0.933118
v 0.043229 0.515266 0.839784
v 0.043229 0.668318 0.714177
v 0.043229 0.793924 0.561125
v 0.043229 0.887258 0.386510
v 0.043229 0.944733 0.197040
v 0.043229 0.964139 -0.000001
v 0.043229 0.944732 -0.197042
v 0.043229 0.887257 -0.386511
v 0.043229 0.793923 -0.561127
v 0.043229 0.668316 -0.714179
v 0.043229 0.515264 -0.839785
v 0.043229 0.340648 -0.933119
v 0.043229 0.151179 -0.990593
v -0.052936 -0.045861 -1.010000
v -0.052936 -0.242902 -0.990593
v -0.052936 -0.432371 -0.933118
v -0.052936 -0.606987 -0.839784
v -0.052936 -0.760039 -0.714178
v -0.052936 -0.885645 -0.561126
v -0.052936 -0.978979 -0.386510
v -0.052936 -1.036454 -0.197041
v -0.052936 -1.055861 -0.000000
v -0.052936 -1.036454 0.197041
v -0.052936 -0.978979 0.386510
v -0.052936 -0.885645 0.561126
v -0.052936 -0.760039 0.714178
v -0.052936 -0.606987 0.839784
v -0.052936 -0.432371 0.933118
v -0.052936 -0.242902 0.990593
v -0.052936 -0.045860 1.010000
v -0.052936 0.151181 0.990593
v -0.052936 0.340650 0.933118
v -0.052936 0.515266 0.839784
v -0.052936 0.668318 0.714177
v -0.052936 0.793924 0.561125
v -0.052936 0.887258 0.386510
v -0.052936 0.944733 0.197040
v -0.052936 0.964139 -0.000001
v -0.052936 0.944732 -0.197042
v -0.052936 0.887257 -0.386511
v -0.052936 0.793923 -0.561127
v -0.052936 0.668316 -0.714179
v -0.052936 0.515264 -0.839785
v -0.052936 0.340648 -0.933119
v -0.052936 0.151179 -0.990593
vt 0.000000 0.000000
vt 0.000000 0.000000
vt 0.000000 0.000000
vt 0.000000 0.000000
vt 0.000000 0.000000
vt 0.000000 0.000000
vt 0.000000 0.000000
vt 0.000000 0.000000
vt 0.000000 0.000000
vt 0.000000 0.000000
vt 0.000000 0.000000
vt 0.000000 0.000000
vt 0.000000 0.000000
vt 0.000000 0.000000
vt 0.000000 0.000000
vt 0.000000 0.000000
vt 0.000000 0.000000
vt 0.000000 0.000000
vt 0.000000 0.000000
vt 0.000000 0.000000
vt 0.000000 0.000000
vt 0.000000 0.000000
vt 0.000000 0.000000
vt 0.000000 0.000000
vt 0.000000 0.000000
vt 0.000000 0.000000
vt 0.000000 0.000000
vt 0.000000 0.000000
vt 0.000000 0.000000
vt 0.000000 0.000000
vt 0.000000 0.000000
vt 0.000000 0.000000
vt 0.000000 0.000000
vt 0.000000 0.000000
vt 0.000000 0.000000
vt 0.000000 0.000000
vt 0.000000 0.000000
vt 0.000000 0.000000
vt 0.000000 0.000000
vt 0.000000 0.000000
vt 0.000000 0.000000
vt 0.000000 0.000000
vt 0.000000 0.000000
vt 0.000000 0.000000
vt 0.000000 0.000000
vt 0.000000 0.000000
vt 0.000000 0.000000
vt 0.000000 0.000000
vt 0.000000 0.000000
vt 0.000000 0.000000
vt 0.000000 0.000000
vt 0.000000 0.000000
vt 0.000000 0.000000
vt 0.000000 0.000000
vt 0.000000 0.000000
vt 0.000000 0.000000
vt 0.000000 0.000000
vt 0.000000 0.000000
vt 0.000000 0.000000
vt 0.000000 0.000000
vt 0.000000 0.000000
vt 0.000000 0.000000
vt 0.000000 0.000000
vt 0.000000 0.000000
vn 0.0000 0.2903 0.9569
vn 0.0000 -0.6344 0.7730
vn 0.0000 0.0980 -0.9952
vn 0.0000 0.4714 0.8819
vn 0.0000 -0.4714 0.8819
vn 0.0000 -0.0980 -0.9952
vn 0.0000 0.6344 0.7730
vn 0.0000 -0.2903 0.9569
vn 0.0000 -0.2903 -0.9569
vn 0.0000 0.7730 0.6344
vn -0.0000 -0.0980 0.9952
vn 0.0000 -0.4714 -0.8819
vn 0.0000 0.8819 0.4714
vn 0.0000 -0.6344 -0.7730
vn 0.0000 0.9569 0.2903
vn 0.0000 -0.7730 -0.6344
vn 0.0000 0.9952 0.0980
vn 0.0000 -0.8819 -0.4714
vn 0.0000 0.9952 -0.0980
vn 0.0000 -0.9569 -0.2903
vn 0.0000 0.9569 -0.2903
vn 0.0000 -0.9952 -0.0980
vn 0.0000 0.8819 -0.4714
vn 0.0000 -0.9952 0.0980
vn 0.0000 0.7730 -0.6344
vn 0.0000 -0.9569 0.2903
vn 0.0000 0.6344 -0.7730
vn 0.0000 -0.8819 0.4714
vn 0.0000 0.4714 -0.8819
vn 0.0000 0.0980 0.9952
vn 0.0000 -0.7730 0.6344
vn 0.0000 0.2903 -0.9569
usemtl None
s off
f 66/65/33 99/66/33 67/67/33
f 93/68/34 126/69/34 94/70/34
f 80/71/35 113/72/35 81/73/35
f 67/67/36 100/74/36 68/75/36
f 94/70/37 127/76/37 95/77/37
f 81/73/38 114/78/38 82/79/38
f 68/75/39 101/80/39 69/81/39
f 95/77/40 128/82/40 96/83/40
f 82/79/41 115/84/41 83/85/41
f 69/81/42 102/86/42 70/87/42
f 96/83/43 97/88/43 65/89/43
f 83/85/44 116/90/44 84/91/44
f 70/87/45 103/92/45 71/93/45
f 84/91/46 117/94/46 85/95/46
f 71/93/47 104/96/47 72/97/47
f 85/95/48 118/98/48 86/99/48
f 72/97/49 105/100/49 73/101/49
f 86/99/50 119/102/50 87/103/50
f 73/101/51 106/104/51 74/105/51
f 87/103/52 120/106/52 88/107/52
f 74/105/53 107/108/53 75/109/53
f 88/107/54 121/110/54 89/111/54
f 75/109/55 108/112/55 76/113/55
f 89/111/56 122/114/56 90/115/56
f 76/113/57 109/116/57 77/117/57
f 90/115/58 123/118/58 91/119/58
f 77/117/59 110/120/59 78/121/59
f 91/119/60 124/122/60 92/123/60
f 78/121/61 111/124/61 79/125/61
f 65/89/62 98/126/62 66/65/62
f 92/123/63 125/127/63 93/68/63
f 79/125/64 112/128/64 80/71/64
f 66/65/33 98/126/33 99/66/33
f 93/68/34 125/127/34 126/69/34
f 80/71/35 112/128/35 113/72/35
f 67/67/36 99/66/36 100/74/36
f 94/70/37 126/69/37 127/76/37
f 81/73/38 113/72/38 114/78/38
f 68/75/39 100/74/39 101/80/39
f 95/77/40 127/76/40 128/82/40
f 82/79/41 114/78/41 115/84/41
f 69/81/42 101/80/42 102/86/42
f 96/83/43 128/82/43 97/88/43
f 83/85/44 115/84/44 116/90/44
f 70/87/45 102/86/45 103/92/45
f 84/91/46 116/90/46 117/94/46
f 71/93/47 103/92/47 104/96/47
f 85/95/48 117/94/48 118/98/48
f 72/97/49 104/96/49 105/100/49
f 86/99/50 118/98/50 119/102/50
f 73/101/51 105/100/51 106/104/51
f 87/103/52 119/102/52 120/106/52
f 74/105/53 106/104/53 107/108/53
f 88/107/54 120/106/54 121/110/54
f 75/109/55 107/108/55 108/112/55
f 89/111/56 121/110/56 122/114/56
f 76/113/57 108/112/57 109/116/57
f 90/115/58 122/114/58 123/118/58
f 77/117/59 109/116/59 110/120/59
f 91/119/60 123/118/60 124/122/60
f 78/121/61 110/120/61 111/124/61
f 65/89/62 97/88/62 98/126/62
f 92/123/63 124/122/63 125/127/63
f 79/125/64 111/124/64 112/128/64
o Circle.002
v -0.966771 -0.045861 -0.045525
v -0.947364 -0.240951 -0.045525
v -0.889889 -0.428544 -0.045525
v -0.796555 -0.601431 -0.045525
v -0.670949 -0.752967 -0.045525
v -0.517897 -0.877330 -0.045525
v -0.343281 -0.969740 -0.045525
v -0.153812 -1.026646 -0.045525
v 0.043229 -1.045861 -0.045525
v 0.240270 -1.026646 -0.045525
v 0.429739 -0.969740 -0.045525
v 0.604355 -0.877330 -0.045525
v 0.757407 -0.752968 -0.045525
v 0.883013 -0.601431 -0.045525
v 0.976347 -0.428544 -0.045525
v 1.033822 -0.240951 -0.045525
v 1.053229 -0.045860 -0.045525
v 1.033822 0.149230 -0.045525
v 0.976347 0.336823 -0.045525
v 0.883013 0.509710 -0.045525
v 0.757406 0.661246 -0.045525
v 0.604354 0.785609 -0.045525
v 0.429739 0.878019 -0.045525
v 0.240269 0.934925 -0.045525
v 0.043228 0.954139 -0.045525
v -0.153813 0.934924 -0.045525
v -0.343282 0.878018 -0.045525
v -0.517898 0.785608 -0.045525
v -0.670950 0.661245 -0.045525
v -0.796556 0.509708 -0.045525
v -0.889890 0.336821 -0.045525
v -0.947364 0.149228 -0.045525
v -0.966771 -0.045861 0.050640
v -0.947364 -0.240951 0.050640
v -0.889889 -0.428544 0.050640
v -0.796555 -0.601431 0.050640
v -0.670949 -0.752967 0.050640
v -0.517897 -0.877330 0.050640
v -0.343281 -0.969740 0.050640
v -0.153812 -1.026646 0.050640
v 0.043229 -1.045861 0.050640
v 0.240270 -1.026646 0.050640
v 0.429739 -0.969740 0.050640
v 0.604355 -0.877330 0.050640
v 0.757407 -0.752968 0.050640
v 0.883013 -0.601431 0.050640
v 0.976347 -0.428544 0.050640
v 1.033822 -0.240951 0.050640
v 1.053229 -0.045860 0.050640
v 1.033822 0.149230 0.050640
v 0.976347 0.336823 0.050640
v 0.883013 0.509710 0.050640
v 0.757406 0.661246 0.050640
v 0.604354 0.785609 0.050640
v 0.429739 0.878019 0.050640
v 0.240269 0.934925 0.050640
v 0.043228 0.954139 0.050640
v -0.153813 0.934924 0.050640
v -0.343282 0.878018 0.050640
v -0.517898 0.785608 0.050640
v -0.670950 0.661245 0.050640
v -0.796556 0.509708 0.050640
v -0.889890 0.336821 0.050640
v -0.947364 0.149228 0.050640
vt 0.000000 0.000000
vt 0.000000 0.000000
vt 0.000000 0.000000
vt 0.000000 0.000000
vt 0.000000 0.000000
vt 0.000000 0.000000
vt 0.000000 0.000000
vt 0.000000 0.000000
vt 0.000000 0.000000
vt 0.000000 0.000000
vt 0.000000 0.000000
vt 0.000000 0.000000
vt 0.000000 0.000000
vt 0.000000 0.000000
vt 0.000000 0.000000
vt 0.000000 0.000000
vt 0.000000 0.000000
vt 0.000000 0.000000
vt 0.000000 0.000000
vt 0.000000 0.000000
vt 0.000000 0.000000
vt 0.000000 0.000000
vt 0.000000 0.000000
vt 0.000000 0.000000
vt 0.000000 0.000000
vt 0.000000 0.000000
vt 0.000000 0.000000
vt 0.000000 0.000000
vt 0.000000 0.000000
vt 0.000000 0.000000
vt 0.000000 0.000000
vt 0.000000 0.000000
vt 0.000000 0.000000
vt 0.000000 0.000000
vt 0.000000 0.000000
vt 0.000000 0.000000
vt 0.000000 0.000000
vt 0.000000 0.000000
vt 0.000000 0.000000
vt 0.000000 0.000000
vt 0.000000 0.000000
vt 0.000000 0.000000
vt 0.000000 0.000000
vt 0.000000 0.000000
vt 0.000000 0.000000
vt 0.000000 0.000000
vt 0.000000 0.000000
vt 0.000000 0.000000
vt 0.000000 0.000000
vt 0.000000 0.000000
vt 0.000000 0.000000
vt 0.000000 0.000000
vt 0.000000 0.000000
vt 0.000000 0.000000
vt 0.000000 0.000000
vt 0.000000 0.000000
vt 0.000000 0.000000
vt 0.000000 0.000000
vt 0.000000 0.000000
vt 0.000000 0.000000
vt 0.000000 0.000000
vt 0.000000 0.000000
vt 0.000000 0.000000
vt 0.000000 0.000000
vn 0.9561 0.2929 0.0000
vn 0.7699 -0.6382 0.0000
vn -0.9951 0.0990 0.0000
vn 0.8800 0.4751 0.0000
vn 0.8800 -0.4751 0.0000
vn -0.9951 -0.0990 0.0000
vn 0.7699 0.6382 0.0000
vn 0.9561 -0.2929 0.0000
vn -0.9561 -0.2929 0.0000
vn 0.6306 0.7761 0.0000
vn 0.9951 -0.0990 0.0000
vn -0.8800 -0.4751 0.0000
vn 0.4678 0.8839 0.0000
vn -0.7699 -0.6382 0.0000
vn 0.2876 0.9577 0.0000
vn -0.6306 -0.7761 0.0000
vn 0.0971 0.9953 -0.0000
vn -0.4678 -0.8839 0.0000
vn -0.0971 0.9953 0.0000
vn -0.2876 -0.9577 0.0000
vn -0.2876 0.9577 0.0000
vn -0.0971 -0.9953 -0.0000
vn -0.4678 0.8839 0.0000
vn 0.0971 -0.9953 0.0000
vn -0.6306 0.7761 0.0000
vn 0.2877 -0.9577 0.0000
vn -0.7699 0.6382 0.0000
vn 0.4678 -0.8839 0.0000
vn -0.8800 0.4751 0.0000
vn 0.9951 0.0990 0.0000
vn 0.6306 -0.7761 0.0000
vn -0.9561 0.2929 0.0000
vn 0.8800 -0.4750 0.0000
usemtl None
s off
f 130/129/65 163/130/65 131/131/65
f 157/132/66 190/133/66 158/134/66
f 144/135/67 177/136/67 145/137/67
f 131/131/68 164/138/68 132/139/68
f 158/134/69 191/140/69 159/141/69
f 145/137/70 178/142/70 146/143/70
f 132/139/71 165/144/71 133/145/71
f 159/141/72 192/146/72 160/147/72
f 146/143/73 179/148/73 147/149/73
f 133/145/74 166/150/74 134/151/74
f 160/147/75 161/152/75 129/153/75
f 147/149/76 180/154/76 148/155/76
f 134/151/77 167/156/77 135/157/77
f 148/155/78 181/158/78 149/159/78
f 135/157/79 168/160/79 136/161/79
f 149/159/80 182/162/80 150/163/80
f 136/161/81 169/164/81 137/165/81
f 150/163/82 183/166/82 151/167/82
f 137/165/83 170/168/83 138/169/83
f 151/167/84 184/170/84 152/171/84
f 138/169/85 171/172/85 139/173/85
f 152/171/86 185/174/86 153/175/86
f 139/173/87 172/176/87 140/177/87
f 153/175/88 186/178/88 154/179/88
f 140/177/89 173/180/89 141/181/89
f 154/179/90 187/182/90 155/183/90
f 141/181/91 174/184/91 142/185/91
f 155/183/92 188/186/92 156/187/92
f 142/185/93 175/188/93 143/189/93
f 129/153/94 162/190/94 130/129/94
f 156/187/95 189/191/95 157/132/95
f 143/189/96 176/192/96 144/135/96
f 130/129/65 162/190/65 163/130/65
f 157/132/66 189/191/66 190/133/66
f 144/135/67 176/192/67 177/136/67
f 131/131/68 163/130/68 164/138/68
f 158/134/97 190/133/97 191/140/97
f 145/137/70 177/136/70 178/142/70
f 132/139/71 164/138/71 165/144/71
f 159/141/72 191/140/72 192/146/72
f 146/143/73 178/142/73 179/148/73
f 133/145/74 165/144/74 166/150/74
f 160/147/75 192/146/75 161/152/75
f 147/149/76 179/148/76 180/154/76
f 134/151/77 166/150/77 167/156/77
f 148/155/78 180/154/78 181/158/78
f 135/157/79 167/156/79 168/160/79
f 149/159/80 181/158/80 182/162/80
f 136/161/81 168/160/81 169/164/81
f 150/163/82 182/162/82 183/166/82
f 137/165/83 169/164/83 170/168/83
f 151/167/84 183/166/84 184/170/84
f 138/169/85 170/168/85 171/172/85
f 152/171/86 184/170/86 185/174/86
f 139/173/87 171/172/87 172/176/87
f 153/175/88 185/174/88 186/178/88
f 140/177/89 172/176/89 173/180/89
f 154/179/90 186/178/90 187/182/90
f 141/181/91 173/180/91 174/184/91
f 155/183/92 187/182/92 188/186/92
f 142/185/93 174/184/93 175/188/93
f 129/153/94 161/152/94 162/190/94
f 156/187/95 188/186/95 189/191/95
f 143/189/96 175/188/96 176/192/96
