# Blender v2.92.0 OBJ File: 'ring 2.0.blend'
# www.blender.org
mtllib rings2.mtl
o Circle_Circle.003
v 0.012503 0.000000 -1.002549
v 0.012503 -0.194686 -0.983285
v 0.012503 -0.381890 -0.926235
v 0.012503 -0.554419 -0.833589
v 0.012503 -0.705641 -0.708909
v 0.012503 -0.829746 -0.556986
v 0.012503 -0.921965 -0.383659
v 0.012503 -0.978753 -0.195588
v 0.012503 -0.997928 -0.000000
v 0.012503 -0.978753 0.195588
v 0.012503 -0.921965 0.383659
v 0.012503 -0.829746 0.556986
v 0.012503 -0.705641 0.708909
v 0.012503 -0.554419 0.833589
v 0.012503 -0.381890 0.926235
v 0.012503 -0.194686 0.983285
v 0.012503 0.000000 1.002549
v 0.012503 0.194686 0.983285
v 0.012503 0.381891 0.926234
v 0.012503 0.554419 0.833589
v 0.012503 0.705642 0.708909
v 0.012503 0.829747 0.556986
v 0.012503 0.921965 0.383658
v 0.012503 0.978753 0.195587
v 0.012503 0.997928 -0.000001
v 0.012503 0.978752 -0.195589
v 0.012503 0.921964 -0.383660
v 0.012503 0.829746 -0.556988
v 0.012503 0.705640 -0.708910
v 0.012503 0.554418 -0.833590
v 0.012503 0.381889 -0.926235
v 0.012503 0.194685 -0.983286
v -0.013748 0.000000 -1.002549
v -0.013748 -0.194686 -0.983285
v -0.013748 -0.381890 -0.926235
v -0.013748 -0.554419 -0.833589
v -0.013748 -0.705641 -0.708909
v -0.013748 -0.829746 -0.556986
v -0.013748 -0.921965 -0.383659
v -0.013748 -0.978753 -0.195588
v -0.013748 -0.997928 -0.000000
v -0.013748 -0.978753 0.195588
v -0.013748 -0.921965 0.383659
v -0.013748 -0.829746 0.556986
v -0.013748 -0.705641 0.708909
v -0.013748 -0.554419 0.833589
v -0.013748 -0.381890 0.926235
v -0.013748 -0.194686 0.983285
v -0.013748 0.000000 1.002549
v -0.013748 0.194686 0.983285
v -0.013748 0.381891 0.926234
v -0.013748 0.554419 0.833589
v -0.013748 0.705642 0.708909
v -0.013748 0.829747 0.556986
v -0.013748 0.921965 0.383658
v -0.013748 0.978753 0.195587
v -0.013748 0.997928 -0.000001
v -0.013748 0.978752 -0.195589
v -0.013748 0.921964 -0.383660
v -0.013748 0.829746 -0.556988
v -0.013748 0.705640 -0.708910
v -0.013748 0.554418 -0.833590
v -0.013748 0.381889 -0.926235
v -0.013748 0.194685 -0.983286
vt 0.000000 0.000000
vt 0.000000 0.000000
vt 0.000000 0.000000
vt 0.000000 0.000000
vt 0.000000 0.000000
vt 0.000000 0.000000
vt 0.000000 0.000000
vt 0.000000 0.000000
vt 0.000000 0.000000
vt 0.000000 0.000000
vt 0.000000 0.000000
vt 0.000000 0.000000
vt 0.000000 0.000000
vt 0.000000 0.000000
vt 0.000000 0.000000
vt 0.000000 0.000000
vt 0.000000 0.000000
vt 0.000000 0.000000
vt 0.000000 0.000000
vt 0.000000 0.000000
vt 0.000000 0.000000
vt 0.000000 0.000000
vt 0.000000 0.000000
vt 0.000000 0.000000
vt 0.000000 0.000000
vt 0.000000 0.000000
vt 0.000000 0.000000
vt 0.000000 0.000000
vt 0.000000 0.000000
vt 0.000000 0.000000
vt 0.000000 0.000000
vt 0.000000 0.000000
vt 0.000000 0.000000
vt 0.000000 0.000000
vt 0.000000 0.000000
vt 0.000000 0.000000
vt 0.000000 0.000000
vt 0.000000 0.000000
vt 0.000000 0.000000
vt 0.000000 0.000000
vt 0.000000 0.000000
vt 0.000000 0.000000
vt 0.000000 0.000000
vt 0.000000 0.000000
vt 0.000000 0.000000
vt 0.000000 0.000000
vt 0.000000 0.000000
vt 0.000000 0.000000
vt 0.000000 0.000000
vt 0.000000 0.000000
vt 0.000000 0.000000
vt 0.000000 0.000000
vt 0.000000 0.000000
vt 0.000000 0.000000
vt 0.000000 0.000000
vt 0.000000 0.000000
vt 0.000000 0.000000
vt 0.000000 0.000000
vt 0.000000 0.000000
vt 0.000000 0.000000
vt 0.000000 0.000000
vt 0.000000 0.000000
vt 0.000000 0.000000
vt 0.000000 0.000000
vn 0.0000 0.7744 0.6326
vn -0.0000 -0.0985 0.9951
vn 0.0000 -0.4731 -0.8810
vn 0.0000 0.8828 0.4697
vn 0.0000 -0.6361 -0.7716
vn 0.0000 0.9573 0.2891
vn 0.0000 -0.7744 -0.6326
vn 0.0000 0.9952 0.0976
vn 0.0000 -0.8828 -0.4697
vn 0.0000 0.9952 -0.0976
vn 0.0000 -0.9573 -0.2891
vn 0.0000 0.9573 -0.2891
vn 0.0000 -0.9952 -0.0976
vn 0.0000 0.8828 -0.4697
vn 0.0000 -0.9952 0.0976
vn 0.0000 0.7744 -0.6326
vn 0.0000 -0.9573 0.2891
vn 0.0000 0.6361 -0.7716
vn 0.0000 -0.8828 0.4697
vn 0.0000 0.4731 -0.8810
vn 0.0000 0.0985 0.9951
vn 0.0000 -0.7744 0.6326
vn 0.0000 0.2915 -0.9566
vn 0.0000 0.2915 0.9566
vn 0.0000 -0.6361 0.7716
vn 0.0000 0.0985 -0.9951
vn 0.0000 0.4731 0.8810
vn 0.0000 -0.4731 0.8810
vn 0.0000 -0.0985 -0.9951
vn 0.0000 0.6361 0.7716
vn 0.0000 -0.2915 0.9566
vn 0.0000 -0.2915 -0.9566
usemtl None
s off
f 5/1/1 38/2/1 6/3/1
f 32/4/2 33/5/2 1/6/2
f 19/7/3 52/8/3 20/9/3
f 6/3/4 39/10/4 7/11/4
f 20/9/5 53/12/5 21/13/5
f 7/11/6 40/14/6 8/15/6
f 21/13/7 54/16/7 22/17/7
f 8/15/8 41/18/8 9/19/8
f 22/17/9 55/20/9 23/21/9
f 9/19/10 42/22/10 10/23/10
f 23/21/11 56/24/11 24/25/11
f 10/23/12 43/26/12 11/27/12
f 24/25/13 57/28/13 25/29/13
f 11/27/14 44/30/14 12/31/14
f 25/29/15 58/32/15 26/33/15
f 12/31/16 45/34/16 13/35/16
f 26/33/17 59/36/17 27/37/17
f 13/35/18 46/38/18 14/39/18
f 27/37/19 60/40/19 28/41/19
f 14/39/20 47/42/20 15/43/20
f 1/6/21 34/44/21 2/45/21
f 28/41/22 61/46/22 29/47/22
f 15/43/23 48/48/23 16/49/23
f 3/50/24 34/44/24 35/51/24
f 29/47/25 62/52/25 30/53/25
f 16/49/26 49/54/26 17/55/26
f 4/56/27 35/51/27 36/57/27
f 31/58/28 62/52/28 63/59/28
f 17/55/29 50/60/29 18/61/29
f 4/56/30 37/62/30 5/1/30
f 32/4/31 63/59/31 64/63/31
f 18/61/32 51/64/32 19/7/32
f 5/1/1 37/62/1 38/2/1
f 32/4/2 64/63/2 33/5/2
f 19/7/3 51/64/3 52/8/3
f 6/3/4 38/2/4 39/10/4
f 20/9/5 52/8/5 53/12/5
f 7/11/6 39/10/6 40/14/6
f 21/13/7 53/12/7 54/16/7
f 8/15/8 40/14/8 41/18/8
f 22/17/9 54/16/9 55/20/9
f 9/19/10 41/18/10 42/22/10
f 23/21/11 55/20/11 56/24/11
f 10/23/12 42/22/12 43/26/12
f 24/25/13 56/24/13 57/28/13
f 11/27/14 43/26/14 44/30/14
f 25/29/15 57/28/15 58/32/15
f 12/31/16 44/30/16 45/34/16
f 26/33/17 58/32/17 59/36/17
f 13/35/18 45/34/18 46/38/18
f 27/37/19 59/36/19 60/40/19
f 14/39/20 46/38/20 47/42/20
f 1/6/21 33/5/21 34/44/21
f 28/41/22 60/40/22 61/46/22
f 15/43/23 47/42/23 48/48/23
f 3/50/24 2/45/24 34/44/24
f 29/47/25 61/46/25 62/52/25
f 16/49/26 48/48/26 49/54/26
f 4/56/27 3/50/27 35/51/27
f 31/58/28 30/53/28 62/52/28
f 17/55/29 49/54/29 50/60/29
f 4/56/30 36/57/30 37/62/30
f 32/4/31 31/58/31 63/59/31
f 18/61/32 50/60/32 51/64/32
o Circle.002_Circle.005
v 0.012503 0.000000 -1.000000
v 0.207593 -0.000000 -0.980785
v 0.395186 -0.000000 -0.923880
v 0.568073 -0.000000 -0.831470
v 0.719610 -0.000000 -0.707107
v 0.843973 -0.000000 -0.555570
v 0.936382 -0.000000 -0.382683
v 0.993288 -0.000000 -0.195090
v 1.012503 -0.000000 -0.000000
v 0.993288 -0.000000 0.195090
v 0.936383 -0.000000 0.382683
v 0.843973 -0.000000 0.555570
v 0.719610 -0.000000 0.707107
v 0.568073 -0.000000 0.831470
v 0.395186 -0.000000 0.923880
v 0.207593 -0.000000 0.980785
v 0.012503 0.000000 1.000000
v -0.182588 0.000000 0.980785
v -0.370181 0.000000 0.923879
v -0.543068 0.000000 0.831469
v -0.694604 0.000000 0.707106
v -0.818967 0.000000 0.555570
v -0.911377 0.000000 0.382683
v -0.968282 0.000000 0.195089
v -0.987497 0.000000 -0.000001
v -0.968282 0.000000 -0.195091
v -0.911376 0.000000 -0.382684
v -0.818966 0.000000 -0.555571
v -0.694603 0.000000 -0.707108
v -0.543066 0.000000 -0.831470
v -0.370179 0.000000 -0.923880
v -0.182586 0.000000 -0.980786
v 0.012503 -0.026251 -1.000000
v 0.207593 -0.026251 -0.980785
v 0.395186 -0.026251 -0.923880
v 0.568073 -0.026251 -0.831470
v 0.719610 -0.026251 -0.707107
v 0.843973 -0.026251 -0.555570
v 0.936382 -0.026251 -0.382683
v 0.993288 -0.026251 -0.195090
v 1.012503 -0.026251 -0.000000
v 0.993288 -0.026251 0.195090
v 0.936383 -0.026251 0.382683
v 0.843973 -0.026251 0.555570
v 0.719610 -0.026251 0.707107
v 0.568073 -0.026251 0.831470
v 0.395186 -0.026251 0.923880
v 0.207593 -0.026251 0.980785
v 0.012503 -0.026251 1.000000
v -0.182588 -0.026251 0.980785
v -0.370181 -0.026251 0.923879
v -0.543068 -0.026251 0.831469
v -0.694604 -0.026251 0.707106
v -0.818967 -0.026251 0.555570
v -0.911377 -0.026251 0.382683
v -0.968282 -0.026251 0.195089
v -0.987497 -0.026251 -0.000001
v -0.968282 -0.026251 -0.195091
v -0.911376 -0.026251 -0.382684
v -0.818966 -0.026251 -0.555571
v -0.694603 -0.026251 -0.707108
v -0.543066 -0.026251 -0.831470
v -0.370179 -0.026251 -0.923880
v -0.182586 -0.026251 -0.980786
vt 0.000000 0.000000
vt 0.000000 0.000000
vt 0.000000 0.000000
vt 0.000000 0.000000
vt 0.000000 0.000000
vt 0.000000 0.000000
vt 0.000000 0.000000
vt 0.000000 0.000000
vt 0.000000 0.000000
vt 0.000000 0.000000
vt 0.000000 0.000000
vt 0.000000 0.000000
vt 0.000000 0.000000
vt 0.000000 0.000000
vt 0.000000 0.000000
vt 0.000000 0.000000
vt 0.000000 0.000000
vt 0.000000 0.000000
vt 0.000000 0.000000
vt 0.000000 0.000000
vt 0.000000 0.000000
vt 0.000000 0.000000
vt 0.000000 0.000000
vt 0.000000 0.000000
vt 0.000000 0.000000
vt 0.000000 0.000000
vt 0.000000 0.000000
vt 0.000000 0.000000
vt 0.000000 0.000000
vt 0.000000 0.000000
vt 0.000000 0.000000
vt 0.000000 0.000000
vt 0.000000 0.000000
vt 0.000000 0.000000
vt 0.000000 0.000000
vt 0.000000 0.000000
vt 0.000000 0.000000
vt 0.000000 0.000000
vt 0.000000 0.000000
vt 0.000000 0.000000
vt 0.000000 0.000000
vt 0.000000 0.000000
vt 0.000000 0.000000
vt 0.000000 0.000000
vt 0.000000 0.000000
vt 0.000000 0.000000
vt 0.000000 0.000000
vt 0.000000 0.000000
vt 0.000000 0.000000
vt 0.000000 0.000000
vt 0.000000 0.000000
vt 0.000000 0.000000
vt 0.000000 0.000000
vt 0.000000 0.000000
vt 0.000000 0.000000
vt 0.000000 0.000000
vt 0.000000 0.000000
vt 0.000000 0.000000
vt 0.000000 0.000000
vt 0.000000 0.000000
vt 0.000000 0.000000
vt 0.000000 0.000000
vt 0.000000 0.000000
vt 0.000000 0.000000
vn -0.7730 0.0000 0.6344
vn 0.0980 0.0000 0.9952
vn 0.4714 0.0000 -0.8819
vn -0.8819 0.0000 0.4714
vn 0.6344 0.0000 -0.7730
vn -0.9569 0.0000 0.2903
vn 0.7730 0.0000 -0.6344
vn -0.9952 0.0000 0.0980
vn 0.8819 0.0000 -0.4714
vn -0.9952 0.0000 -0.0980
vn 0.9569 0.0000 -0.2903
vn -0.9569 0.0000 -0.2903
vn 0.9952 0.0000 -0.0980
vn -0.8819 0.0000 -0.4714
vn 0.9952 0.0000 0.0980
vn -0.7730 0.0000 -0.6344
vn 0.9569 0.0000 0.2903
vn -0.6344 0.0000 -0.7730
vn 0.8819 0.0000 0.4714
vn -0.4714 0.0000 -0.8819
vn -0.0980 0.0000 0.9952
vn 0.7730 0.0000 0.6344
vn -0.2903 0.0000 -0.9569
vn -0.2903 0.0000 0.9569
vn 0.6344 0.0000 0.7730
vn -0.0980 0.0000 -0.9952
vn -0.4714 0.0000 0.8819
vn 0.4714 0.0000 0.8819
vn 0.0980 0.0000 -0.9952
vn -0.6344 0.0000 0.7730
vn 0.2903 0.0000 0.9569
vn 0.2903 0.0000 -0.9569
usemtl None
s off
f 69/65/33 102/66/33 70/67/33
f 96/68/34 97/69/34 65/70/34
f 83/71/35 116/72/35 84/73/35
f 70/67/36 103/74/36 71/75/36
f 84/73/37 117/76/37 85/77/37
f 71/75/38 104/78/38 72/79/38
f 85/77/39 118/80/39 86/81/39
f 72/79/40 105/82/40 73/83/40
f 86/81/41 119/84/41 87/85/41
f 73/83/42 106/86/42 74/87/42
f 87/85/43 120/88/43 88/89/43
f 74/87/44 107/90/44 75/91/44
f 88/89/45 121/92/45 89/93/45
f 75/91/46 108/94/46 76/95/46
f 89/93/47 122/96/47 90/97/47
f 76/95/48 109/98/48 77/99/48
f 90/97/49 123/100/49 91/101/49
f 77/99/50 110/102/50 78/103/50
f 91/101/51 124/104/51 92/105/51
f 78/103/52 111/106/52 79/107/52
f 65/70/53 98/108/53 66/109/53
f 92/105/54 125/110/54 93/111/54
f 79/107/55 112/112/55 80/113/55
f 67/114/56 98/108/56 99/115/56
f 93/111/57 126/116/57 94/117/57
f 80/113/58 113/118/58 81/119/58
f 68/120/59 99/115/59 100/121/59
f 95/122/60 126/116/60 127/123/60
f 81/119/61 114/124/61 82/125/61
f 68/120/62 101/126/62 69/65/62
f 96/68/63 127/123/63 128/127/63
f 82/125/64 115/128/64 83/71/64
f 69/65/33 101/126/33 102/66/33
f 96/68/34 128/127/34 97/69/34
f 83/71/35 115/128/35 116/72/35
f 70/67/36 102/66/36 103/74/36
f 84/73/37 116/72/37 117/76/37
f 71/75/38 103/74/38 104/78/38
f 85/77/39 117/76/39 118/80/39
f 72/79/40 104/78/40 105/82/40
f 86/81/41 118/80/41 119/84/41
f 73/83/42 105/82/42 106/86/42
f 87/85/43 119/84/43 120/88/43
f 74/87/44 106/86/44 107/90/44
f 88/89/45 120/88/45 121/92/45
f 75/91/46 107/90/46 108/94/46
f 89/93/47 121/92/47 122/96/47
f 76/95/48 108/94/48 109/98/48
f 90/97/49 122/96/49 123/100/49
f 77/99/50 109/98/50 110/102/50
f 91/101/51 123/100/51 124/104/51
f 78/103/52 110/102/52 111/106/52
f 65/70/53 97/69/53 98/108/53
f 92/105/54 124/104/54 125/110/54
f 79/107/55 111/106/55 112/112/55
f 67/114/56 66/109/56 98/108/56
f 93/111/57 125/110/57 126/116/57
f 80/113/58 112/112/58 113/118/58
f 68/120/59 67/114/59 99/115/59
f 95/122/60 94/117/60 126/116/60
f 81/119/61 113/118/61 114/124/61
f 68/120/62 100/121/62 101/126/62
f 96/68/63 95/122/63 127/123/63
f 82/125/64 114/124/64 115/128/64
o Circle.003_Circle.006
v -0.992132 0.000000 -0.000000
v -0.972828 -0.195090 -0.000000
v -0.915659 -0.382683 -0.000000
v -0.822820 -0.555570 -0.000000
v -0.697881 -0.707107 -0.000000
v -0.545642 -0.831470 -0.000000
v -0.371954 -0.923880 -0.000000
v -0.183492 -0.980785 -0.000000
v 0.012503 -1.000000 -0.000000
v 0.208497 -0.980785 0.000000
v 0.396960 -0.923880 0.000000
v 0.570648 -0.831470 0.000000
v 0.722887 -0.707107 0.000000
v 0.847826 -0.555570 0.000000
v 0.940665 -0.382683 0.000000
v 0.997834 -0.195090 0.000000
v 1.017138 0.000000 0.000000
v 0.997834 0.195091 0.000000
v 0.940664 0.382684 0.000000
v 0.847826 0.555571 0.000000
v 0.722887 0.707107 0.000000
v 0.570648 0.831470 0.000000
v 0.396959 0.923880 0.000000
v 0.208497 0.980785 0.000000
v 0.012502 1.000000 -0.000000
v -0.183493 0.980785 -0.000000
v -0.371955 0.923879 -0.000000
v -0.545643 0.831469 -0.000000
v -0.697882 0.707106 -0.000000
v -0.822821 0.555569 -0.000000
v -0.915659 0.382682 -0.000000
v -0.972828 0.195089 -0.000000
v -0.992132 0.000000 0.026251
v -0.972828 -0.195090 0.026251
v -0.915659 -0.382683 0.026251
v -0.822820 -0.555570 0.026251
v -0.697881 -0.707107 0.026251
v -0.545642 -0.831470 0.026251
v -0.371954 -0.923880 0.026251
v -0.183492 -0.980785 0.026251
v 0.012503 -1.000000 0.026251
v 0.208497 -0.980785 0.026251
v 0.396960 -0.923880 0.026251
v 0.570648 -0.831470 0.026251
v 0.722887 -0.707107 0.026251
v 0.847826 -0.555570 0.026251
v 0.940665 -0.382683 0.026251
v 0.997834 -0.195090 0.026251
v 1.017138 0.000000 0.026251
v 0.997834 0.195091 0.026251
v 0.940664 0.382684 0.026251
v 0.847826 0.555571 0.026251
v 0.722887 0.707107 0.026251
v 0.570648 0.831470 0.026251
v 0.396959 0.923880 0.026251
v 0.208497 0.980785 0.026251
v 0.012502 1.000000 0.026251
v -0.183493 0.980785 0.026251
v -0.371955 0.923879 0.026251
v -0.545643 0.831469 0.026251
v -0.697882 0.707106 0.026251
v -0.822821 0.555569 0.026251
v -0.915659 0.382682 0.026251
v -0.972828 0.195089 0.026251
vt 0.000000 0.000000
vt 0.000000 0.000000
vt 0.000000 0.000000
vt 0.000000 0.000000
vt 0.000000 0.000000
vt 0.000000 0.000000
vt 0.000000 0.000000
vt 0.000000 0.000000
vt 0.000000 0.000000
vt 0.000000 0.000000
vt 0.000000 0.000000
vt 0.000000 0.000000
vt 0.000000 0.000000
vt 0.000000 0.000000
vt 0.000000 0.000000
vt 0.000000 0.000000
vt 0.000000 0.000000
vt 0.000000 0.000000
vt 0.000000 0.000000
vt 0.000000 0.000000
vt 0.000000 0.000000
vt 0.000000 0.000000
vt 0.000000 0.000000
vt 0.000000 0.000000
vt 0.000000 0.000000
vt 0.000000 0.000000
vt 0.000000 0.000000
vt 0.000000 0.000000
vt 0.000000 0.000000
vt 0.000000 0.000000
vt 0.000000 0.000000
vt 0.000000 0.000000
vt 0.000000 0.000000
vt 0.000000 0.000000
vt 0.000000 0.000000
vt 0.000000 0.000000
vt 0.000000 0.000000
vt 0.000000 0.000000
vt 0.000000 0.000000
vt 0.000000 0.000000
vt 0.000000 0.000000
vt 0.000000 0.000000
vt 0.000000 0.000000
vt 0.000000 0.000000
vt 0.000000 0.000000
vt 0.000000 0.000000
vt 0.000000 0.000000
vt 0.000000 0.000000
vt 0.000000 0.000000
vt 0.000000 0.000000
vt 0.000000 0.000000
vt 0.000000 0.000000
vt 0.000000 0.000000
vt 0.000000 0.000000
vt 0.000000 0.000000
vt 0.000000 0.000000
vt 0.000000 0.000000
vt 0.000000 0.000000
vt 0.000000 0.000000
vt 0.000000 0.000000
vt 0.000000 0.000000
vt 0.000000 0.000000
vt 0.000000 0.000000
vt 0.000000 0.000000
vn 0.6326 0.7744 0.0000
vn 0.9951 -0.0985 0.0000
vn -0.8810 -0.4731 0.0000
vn 0.4697 0.8828 0.0000
vn -0.7716 -0.6361 0.0000
vn 0.2891 0.9573 0.0000
vn -0.6326 -0.7744 0.0000
vn 0.0976 0.9952 0.0000
vn -0.4697 -0.8828 0.0000
vn -0.0976 0.9952 0.0000
vn -0.2891 -0.9573 0.0000
vn -0.2891 0.9573 0.0000
vn -0.0976 -0.9952 -0.0000
vn -0.4697 0.8828 0.0000
vn 0.0976 -0.9952 0.0000
vn -0.6326 0.7744 0.0000
vn 0.2891 -0.9573 0.0000
vn -0.7716 0.6361 0.0000
vn 0.4697 -0.8828 0.0000
vn -0.8810 0.4731 0.0000
vn 0.9951 0.0985 0.0000
vn 0.6326 -0.7744 0.0000
vn -0.9566 0.2915 0.0000
vn 0.9566 0.2915 0.0000
vn 0.7716 -0.6361 0.0000
vn -0.9951 0.0985 0.0000
vn 0.8810 0.4731 0.0000
vn 0.8810 -0.4731 0.0000
vn -0.9951 -0.0985 0.0000
vn 0.7716 0.6361 0.0000
vn 0.9566 -0.2915 0.0000
vn -0.9566 -0.2915 -0.0000
usemtl None
s off
f 133/129/65 166/130/65 134/131/65
f 160/132/66 161/133/66 129/134/66
f 147/135/67 180/136/67 148/137/67
f 134/131/68 167/138/68 135/139/68
f 148/137/69 181/140/69 149/141/69
f 135/139/70 168/142/70 136/143/70
f 149/141/71 182/144/71 150/145/71
f 136/143/72 169/146/72 137/147/72
f 150/145/73 183/148/73 151/149/73
f 137/147/74 170/150/74 138/151/74
f 151/149/75 184/152/75 152/153/75
f 138/151/76 171/154/76 139/155/76
f 152/153/77 185/156/77 153/157/77
f 139/155/78 172/158/78 140/159/78
f 153/157/79 186/160/79 154/161/79
f 140/159/80 173/162/80 141/163/80
f 154/161/81 187/164/81 155/165/81
f 141/163/82 174/166/82 142/167/82
f 155/165/83 188/168/83 156/169/83
f 142/167/84 175/170/84 143/171/84
f 129/134/85 162/172/85 130/173/85
f 156/169/86 189/174/86 157/175/86
f 143/171/87 176/176/87 144/177/87
f 131/178/88 162/172/88 163/179/88
f 157/175/89 190/180/89 158/181/89
f 144/177/90 177/182/90 145/183/90
f 132/184/91 163/179/91 164/185/91
f 159/186/92 190/180/92 191/187/92
f 145/183/93 178/188/93 146/189/93
f 132/184/94 165/190/94 133/129/94
f 160/132/95 191/187/95 192/191/95
f 146/189/96 179/192/96 147/135/96
f 133/129/65 165/190/65 166/130/65
f 160/132/66 192/191/66 161/133/66
f 147/135/67 179/192/67 180/136/67
f 134/131/68 166/130/68 167/138/68
f 148/137/69 180/136/69 181/140/69
f 135/139/70 167/138/70 168/142/70
f 149/141/71 181/140/71 182/144/71
f 136/143/72 168/142/72 169/146/72
f 150/145/73 182/144/73 183/148/73
f 137/147/74 169/146/74 170/150/74
f 151/149/75 183/148/75 184/152/75
f 138/151/76 170/150/76 171/154/76
f 152/153/77 184/152/77 185/156/77
f 139/155/78 171/154/78 172/158/78
f 153/157/79 185/156/79 186/160/79
f 140/159/80 172/158/80 173/162/80
f 154/161/81 186/160/81 187/164/81
f 141/163/82 173/162/82 174/166/82
f 155/165/83 187/164/83 188/168/83
f 142/167/84 174/166/84 175/170/84
f 129/134/85 161/133/85 162/172/85
f 156/169/86 188/168/86 189/174/86
f 143/171/87 175/170/87 176/176/87
f 131/178/88 130/173/88 162/172/88
f 157/175/89 189/174/89 190/180/89
f 144/177/90 176/176/90 177/182/90
f 132/184/91 131/178/91 163/179/91
f 159/186/92 158/181/92 190/180/92
f 145/183/93 177/182/93 178/188/93
f 132/184/94 164/185/94 165/190/94
f 160/132/95 159/186/95 191/187/95
f 146/189/96 178/188/96 179/192/96
